<svg width="108" height="54" viewBox="0 0 108 54" fill="none" xmlns="http://www.w3.org/2000/svg">
<g id="CLAIM GUARD 2">
<path id="Vector" d="M18.7349 35.2083C18.1572 36.4668 17.5614 37.6526 17.072 38.8817C16.7031 39.808 15.9726 39.5397 15.3139 39.5931C14.7244 39.6409 14.5527 39.2495 14.3835 38.7853C11.6436 31.2666 8.89418 23.7516 6.1472 16.2356C5.8638 15.4602 5.93593 15.325 6.74948 15.3097C7.92692 15.2876 9.1051 15.3085 10.2829 15.3029C10.9751 15.2995 11.3954 15.5816 11.6544 16.281C12.9499 19.7794 14.2905 23.2606 15.6173 26.747C15.8067 27.2447 15.9522 27.7685 16.3628 28.2034C16.7377 27.9205 16.8481 27.5202 16.9948 27.1592C18.4502 23.578 19.9177 20.0015 21.3254 16.401C21.6301 15.6216 22.0706 15.2897 22.868 15.3004C24.0456 15.3161 25.2238 15.2773 26.4015 15.2892C27.1691 15.297 27.2515 15.4434 26.9259 16.1695C24.6589 21.225 22.7025 26.4132 20.5187 31.504C19.9867 32.7442 19.3507 33.9386 18.7349 35.2083ZM15.0643 30.8586C15.2214 30.2029 14.4066 30.3692 14.2821 29.853C14.1451 30.386 13.6306 30.4075 13.2543 30.7892C13.8084 31.0272 13.8345 31.5266 13.918 32.0956C14.2659 31.7264 14.6558 31.7885 14.9892 31.7237C15.0281 31.4301 14.8666 31.1868 15.0643 30.8586ZM24.109 19.2346C24.5075 18.8658 23.8671 18.2633 24.4607 17.9115C23.9807 17.9544 23.7304 17.6416 23.5043 17.4556C22.3854 17.8836 23.0277 18.6943 22.9707 19.3701C23.3556 19.382 23.6474 19.0466 24.109 19.2346ZM19.2704 27.7713C19.1346 28.0155 18.7565 27.919 18.6373 28.2368C18.9431 28.532 19.0066 28.9229 18.9714 29.378C19.3902 29.3009 19.7434 29.2358 20.1355 29.1636C20.0609 28.7444 20.3945 28.4671 20.4505 28.0555C20.039 27.9702 19.8382 27.6499 19.6073 27.3074C19.4848 27.4751 19.4077 27.5807 19.2704 27.7713ZM11.7921 26.176C12.106 25.9702 12.4684 26.0203 12.9053 26.0557C12.5938 25.5454 12.6408 25.1104 12.8578 24.6729C12.5336 24.5146 12.2567 24.3794 11.9903 24.2494C11.7182 24.5507 11.4733 24.822 11.1943 25.131C11.514 25.412 11.3472 25.9029 11.7921 26.176ZM9.14998 19.3866C9.4314 19.6078 9.5274 19.9572 9.73373 20.2986C10.0541 19.9942 10.4366 20.2142 10.8187 20.1656C10.7048 19.7464 10.7289 19.3731 10.7593 18.938C10.4052 18.8852 10.1555 18.6438 9.87066 18.42C9.64152 18.6964 9.43822 18.9668 9.0622 19.046C8.81817 19.0975 9.00527 19.2324 9.14998 19.3866ZM16.8586 32.7327C16.8765 32.9944 16.8944 33.2561 16.9189 33.6135C17.2722 33.3078 17.6309 33.2953 18.0754 33.4193C17.9502 32.8888 18.1003 32.4827 18.4575 31.9904C17.902 32.1837 17.6338 31.8575 17.2565 31.6815C17.1806 32.0729 16.5223 32.0913 16.8586 32.7327ZM21.071 23.6845C21.0814 23.8415 21.0919 23.9985 21.1096 24.2631C21.4912 23.9461 21.8766 23.9908 22.2893 24.0505C22.1895 23.5988 22.3153 23.2475 22.4708 22.8819C22.1545 22.725 21.8567 22.5773 21.5463 22.4234C21.309 22.8103 20.5768 22.9216 21.071 23.6845ZM15.5753 35.876C15.3835 36.0363 15.1917 36.1966 14.9843 36.37C15.2702 36.6164 15.4473 36.8787 15.5317 37.2529C15.8642 37.1368 16.1875 37.247 16.633 37.3117C16.2441 36.7649 16.3852 36.3245 16.8072 35.6937C16.2582 36.0307 15.9843 35.4548 15.5753 35.876Z" fill="white"/>
<path id="Vector_2" d="M88.6554 23.5794C88.656 20.5718 88.6691 17.6445 88.6473 14.7175C88.6427 14.1029 88.8167 13.9776 89.4486 13.8765C90.6913 13.6779 91.2201 14.3091 91.7113 15.2692C92.2597 16.3412 92.9108 17.3594 93.6004 18.544C94.3907 17.157 95.1243 15.9347 95.7881 14.6747C96.0895 14.1027 96.4222 13.8691 97.0967 13.9036C98.7167 13.9866 98.7209 13.9423 98.7218 15.6055C98.7235 18.5056 98.7051 21.4059 98.735 24.3056C98.7426 25.0329 98.5335 25.3091 97.7786 25.2903C96.3685 25.2551 96.367 25.2976 96.3665 23.879C96.366 22.0149 96.3664 20.1507 96.2159 18.2469C95.4055 19.689 94.5952 21.131 93.6818 22.7564C92.7753 21.2867 91.9646 19.9723 91.154 18.658C91.1067 18.6623 91.0594 18.6665 91.0121 18.6708C91.0121 19.6233 91.0124 20.5758 91.012 21.5283C91.0116 22.5853 91.0029 23.6424 91.0134 24.6993C91.0177 25.1361 90.879 25.3811 90.4035 25.298C90.351 25.2888 90.2968 25.2891 90.2433 25.2869C88.566 25.2168 88.6578 25.5923 88.6554 23.5794Z" fill="white"/>
<path id="Vector_3" d="M37.6059 28.9261C40.4721 28.9907 39.8345 28.4284 40.9037 31.2246C41.4705 32.7069 41.4397 32.7182 39.8423 32.718C34.3876 32.7177 28.9329 32.7177 23.4783 32.7181C22.3237 32.7181 22.2852 32.6647 22.6982 31.6004C22.9034 31.0717 23.148 30.5553 23.3099 30.0135C23.5479 29.217 24.0314 28.9212 24.8527 28.9301C27.606 28.9599 30.36 28.9321 33.1138 28.928C34.5844 28.9258 36.0551 28.9268 37.6059 28.9261Z" fill="#C91217"/>
<path id="Vector_4" d="M54.2321 39.5005C52.0433 39.8254 50.0753 39.5419 48.6265 37.7571C47.0326 35.7936 46.9705 33.5646 47.9093 31.3303C48.8185 29.1661 50.5606 28.0645 52.8769 27.93C53.8407 27.8741 54.7964 27.9163 55.729 28.2519C56.3835 28.4875 56.6938 28.8728 56.582 29.5888C56.5038 30.089 56.4647 30.5955 56.3937 31.2274C55.6422 30.6602 54.8985 30.3365 54.0731 30.1984C52.6005 29.9521 51.1853 30.5408 50.4486 31.7415C49.6442 33.0527 49.6703 35.1033 50.5056 36.2111C51.3522 37.3338 52.95 37.7288 54.1975 37.1238C54.8581 36.8034 55.2299 35.7451 54.8897 35.099C54.6596 34.6619 54.2271 34.8731 53.8782 34.8176C53.5838 34.7708 53.1356 35.0003 53.038 34.5829C52.9056 34.0168 52.7368 33.415 52.9729 32.8291C53.0539 32.6281 53.2864 32.6472 53.4714 32.6467C54.7245 32.6433 55.9776 32.645 57.2174 32.645C57.2174 34.1003 57.3819 35.5731 57.1727 36.9894C56.948 38.5116 55.6356 39.0931 54.2321 39.5005Z" fill="white"/>
<path id="Vector_5" d="M97.5185 38.5298C95.5975 39.8018 93.5248 39.7529 91.4258 39.5181C90.9822 39.4684 90.7905 39.1998 90.7918 38.7421C90.8011 35.4127 90.8002 32.0833 90.8019 28.7539C90.8021 28.3302 90.9201 27.9857 91.409 27.9678C92.9832 27.9101 94.5628 27.7723 96.098 28.3056C99.0217 29.3213 100.391 32.3064 99.4657 35.665C99.1464 36.8236 98.5414 37.7866 97.5185 38.5298ZM93.1149 36.9145C93.0906 37.3875 93.3672 37.4929 93.7722 37.5236C95.7597 37.6746 97.1149 36.4912 97.269 34.1859C97.4208 31.9157 96.5034 30.2035 93.8923 30.1274C93.2954 30.1099 93.0951 30.3103 93.104 30.9161C93.1327 32.8665 93.114 34.8176 93.1149 36.9145Z" fill="white"/>
<path id="Vector_6" d="M82.2705 39.4145C80.6106 39.4017 80.7933 39.5352 80.789 37.957C80.7811 34.9793 80.8084 32.0014 80.7713 29.0243C80.7617 28.2592 81.01 27.9222 81.7637 27.9387C83.0436 27.9667 84.33 27.7935 85.6002 28.0908C86.8829 28.3911 87.8951 29.0218 88.2268 30.4032C88.5689 31.8278 88.2976 33.1113 87.126 34.0581C86.6598 34.4348 86.6822 34.7441 86.9204 35.2243C87.5878 36.5694 88.2102 37.9373 88.9285 39.4624C88.0663 39.4624 87.3291 39.4723 86.5923 39.4582C86.2222 39.4511 86.1414 39.1158 86.0236 38.8516C85.5618 37.8158 85.0936 36.7824 84.6624 35.7335C84.4828 35.2965 84.2181 35.1262 83.7544 35.1075C83.2971 35.0891 83.1253 35.235 83.1332 35.6972C83.1497 36.6713 83.1103 37.6468 83.1399 38.6203C83.158 39.2161 82.9385 39.4828 82.2705 39.4145ZM84.9657 30.1579C84.8337 30.1418 84.7021 30.1223 84.5698 30.1102C83.1648 29.9819 83.1389 30.006 83.137 31.4276C83.1366 31.7236 83.1623 32.0222 83.1317 32.315C83.066 32.9441 83.3189 33.2228 83.9459 33.1587C84.1834 33.1345 84.4261 33.1565 84.6622 33.1246C85.4307 33.0206 85.9494 32.6054 86.0681 31.8101C86.1862 31.0192 85.8877 30.442 84.9657 30.1579Z" fill="white"/>
<path id="Vector_7" d="M60.479 38.3297C59.722 37.449 59.4224 36.4554 59.4165 35.3682C59.4049 33.2295 59.433 31.0904 59.3997 28.9521C59.3891 28.2708 59.6294 28.0572 60.2847 28.0811C62.0046 28.1436 61.8978 27.8382 61.9013 29.6803C61.9049 31.5483 61.8966 33.4164 61.9105 35.2844C61.9205 36.6368 62.6453 37.4354 63.8617 37.4755C64.9089 37.51 65.6759 36.6918 65.7097 35.3565C65.7611 33.3273 65.7368 31.2962 65.7475 29.266C65.7536 28.0978 65.7561 28.0978 66.9061 28.0963C68.1951 28.0946 68.1955 28.0946 68.1955 29.4257C68.1957 31.2667 68.1874 33.1077 68.197 34.9486C68.207 36.8658 67.5611 38.4521 65.7486 39.2309C63.8796 40.0341 62.0876 39.7492 60.479 38.3297Z" fill="white"/>
<path id="Vector_8" d="M70.1673 18.4912C70.6556 17.1062 71.1429 15.7879 71.5787 14.4523C71.7123 14.0428 71.899 13.9098 72.317 13.9052C74.0699 13.8861 74.0645 13.8744 74.6703 15.5634C75.7098 18.4619 76.7599 21.3565 77.7954 24.2564C77.9005 24.5506 78.0948 24.842 77.9391 25.2611C77.2741 25.2611 76.5861 25.2671 75.8983 25.2588C75.4814 25.2538 75.4106 24.9079 75.2977 24.6029C74.6433 22.8342 74.6421 22.8347 72.7531 22.8356C71.0809 22.8363 71.0489 22.8268 70.567 24.4918C70.3604 25.2057 70.0277 25.4826 69.3049 25.3011C68.8729 25.1927 68.3989 25.3756 67.8547 25.0986C68.6183 22.9171 69.3825 20.7342 70.1673 18.4912ZM73.5447 19.1606C73.3435 18.5622 73.1423 17.9639 72.8955 17.2301C72.4641 18.4098 72.0974 19.4392 71.8599 20.4852C72.1176 20.7048 72.3669 20.6364 72.5993 20.6392C74.0225 20.6565 74.0225 20.6539 73.5447 19.1606Z" fill="white"/>
<path id="Vector_9" d="M75.1514 28.0988C75.5117 28.1085 75.6327 28.2941 75.7216 28.5444C76.9228 31.9283 78.128 35.3107 79.3363 38.6921C79.4097 38.8976 79.4791 39.0953 79.4154 39.3961C78.7 39.3961 77.9881 39.4152 77.2777 39.3889C76.8566 39.3733 76.8431 38.9735 76.7403 38.6776C76.1532 36.9895 76.154 36.9892 74.3859 36.9877C74.279 36.9876 74.172 36.9872 74.0651 36.9873C72.3064 36.9885 72.5769 36.8526 72.1175 38.4537C71.8801 39.2811 71.5119 39.5646 70.7158 39.4235C70.3275 39.3546 69.9153 39.4865 69.5313 39.3139C69.3453 39.001 69.531 38.73 69.6241 38.4647C70.7592 35.2282 71.9139 31.9987 73.0333 28.7567C73.2042 28.2617 73.4467 28.0485 73.9571 28.0906C74.3289 28.1212 74.7053 28.0961 75.1514 28.0988ZM74.0811 32.1438C73.8301 32.9627 73.5006 33.7601 73.3638 34.6729C74.0498 34.8727 74.6856 34.8453 75.3981 34.7046C75.1245 33.5768 74.7815 32.5379 74.348 31.4083C74.2457 31.6911 74.1828 31.8648 74.0811 32.1438Z" fill="white"/>
<path id="Vector_10" d="M55.8367 22.5519C56.0741 22.3766 56.2632 22.2324 56.4559 22.0855C57.1491 23.2834 56.7727 24.6105 55.5717 25.0674C53.5488 25.837 51.5339 25.7898 49.7752 24.4399C47.9349 23.0273 47.5209 20.9649 47.75 18.7544C48.2607 13.8268 52.8045 13.1422 55.8279 13.979C56.3383 14.1203 56.5877 14.4248 56.5567 14.9767C56.5236 15.5646 56.6056 16.1608 56.4163 16.8251C55.6527 16.3899 54.8958 16.0418 54.0325 15.9808C50.9251 15.7612 49.9468 17.694 50.2387 20.2197C50.5307 22.7459 52.6439 23.8662 55.1382 22.897C55.3617 22.8101 55.5721 22.6885 55.8367 22.5519Z" fill="white"/>
<path id="Vector_11" d="M38.0079 24.0039C38.7256 25.7092 38.7185 25.7222 36.9487 25.7242C33.4724 25.728 29.9961 25.731 26.5198 25.7304C25.2493 25.7302 25.2106 25.6668 25.6946 24.4509C25.9443 23.8238 26.2113 23.2036 26.4501 22.5724C26.6265 22.1062 26.9285 21.919 27.4286 21.9211C30.4235 21.9335 33.4185 21.9342 36.4133 21.9107C36.9867 21.9062 37.3148 22.1331 37.4969 22.6586C37.6471 23.0923 37.8193 23.5182 38.0079 24.0039Z" fill="#C91217"/>
<path id="Vector_12" d="M64.4415 23.0888C65.6747 23.0793 66.1869 23.9255 65.7063 25.0356C65.5677 25.3558 65.312 25.3635 65.0379 25.3392C63.7021 25.2208 62.3637 25.2618 61.0277 25.3009C60.5145 25.3159 60.3774 25.1164 60.3788 24.6435C60.3883 21.2857 60.3896 17.9279 60.3775 14.5701C60.3757 14.0936 60.5087 13.9123 61.0178 13.9086C62.8769 13.8948 62.8766 13.8748 62.8753 15.7732C62.874 17.6958 62.8682 19.6184 62.8733 21.541C62.8777 23.2019 62.6917 23.0846 64.4415 23.0888Z" fill="white"/>
<path id="Vector_13" d="M22.3527 35.7917C23.9563 35.7881 25.4818 35.7772 27.0071 35.7819C27.8655 35.7846 27.9575 35.9249 27.6404 36.7442C27.3381 37.5254 27.002 38.2931 26.7004 39.0745C26.522 39.5367 26.2295 39.7413 25.7259 39.7366C23.8259 39.7191 21.9255 39.7193 20.0256 39.738C19.3574 39.7446 19.1253 39.513 19.4104 38.8629C19.7902 37.9968 20.1339 37.1132 20.5472 36.264C20.9266 35.4845 21.6809 35.8902 22.3527 35.7917Z" fill="#C91217"/>
<path id="Vector_14" d="M81.3246 17.5663C81.3259 16.5649 81.3381 15.6446 81.3243 14.7247C81.3154 14.1315 81.4781 13.8562 82.1607 13.8982C83.7878 13.9981 83.7902 13.9601 83.7905 15.649C83.7909 18.5446 83.7662 21.4407 83.8078 24.3357C83.8188 25.1045 83.5554 25.3134 82.8399 25.2859C81.2912 25.2265 81.3233 25.4945 81.3262 23.7367C81.3294 21.707 81.3254 19.6773 81.3246 17.5663Z" fill="white"/>
<path id="Vector_15" d="M35.7224 36.2352C35.8595 35.7826 36.2026 35.8903 36.4715 35.8887C38.3676 35.8773 40.2639 35.8953 42.1598 35.8781C42.6633 35.8735 42.9485 36.0649 43.1123 36.5463C43.4482 37.5343 43.8181 38.5104 44.1515 39.4292C43.8963 39.8052 43.6072 39.7267 43.3535 39.7274C41.5107 39.7324 39.6677 39.7102 37.8253 39.7359C37.2298 39.7442 36.8762 39.5384 36.6843 38.9611C36.3869 38.0662 36.048 37.1856 35.7224 36.2352Z" fill="#C91217"/>
<path id="Vector_16" d="M31.5002 18.7275C30.6196 18.7245 29.8193 18.7181 29.019 18.7196C28.371 18.7208 28.226 18.461 28.5039 17.8606C28.7746 17.2759 28.9789 16.6586 29.1962 16.0497C29.383 15.5262 29.7316 15.2804 30.2848 15.2832C31.4851 15.2894 32.6857 15.2867 33.8858 15.2659C34.3594 15.2577 34.6337 15.4814 34.7919 15.9041C35.0374 16.5599 35.2645 17.2235 35.5355 17.8682C35.8055 18.5107 35.5202 18.713 34.9416 18.7167C33.8213 18.7239 32.7009 18.7243 31.5002 18.7275Z" fill="#C91217"/>
</g>
</svg>
